<?xml version="1.0" encoding="UTF-8"?>
<svg version="1.1" xmlns="http://www.w3.org/2000/svg" width="180" height="180">
<path d="M0 0 C2.1065693 0.00315246 4.21171931 -0.02034117 6.31811523 -0.0456543 C17.72948031 -0.10081447 27.95102995 1.82446624 38.37084961 6.56567383 C39.04857422 6.87085938 39.72629883 7.17604492 40.42456055 7.49047852 C61.97643537 17.43356728 76.69142445 33.90786066 86.30834961 55.31567383 C86.9599707 56.76586914 86.9599707 56.76586914 87.62475586 58.24536133 C91.79094485 68.11507842 92.6571822 77.38546687 92.62402344 88.00732422 C92.62087098 90.11389352 92.64436461 92.21904353 92.66967773 94.32543945 C92.7248379 105.73680453 90.7995572 115.95835417 86.05834961 126.37817383 C85.75316406 127.05589844 85.44797852 127.73362305 85.13354492 128.43188477 C75.19045616 149.98375959 58.71616278 164.69874867 37.30834961 174.31567383 C35.8581543 174.96729492 35.8581543 174.96729492 34.37866211 175.63208008 C24.50894502 179.79826907 15.23855657 180.66450642 4.61669922 180.63134766 C2.51012992 180.6281952 0.40497991 180.65168883 -1.70141602 180.67700195 C-13.11278109 180.73216212 -23.33433073 178.80688142 -33.75415039 174.06567383 C-34.431875 173.76048828 -35.10959961 173.45530273 -35.80786133 173.14086914 C-57.35973615 163.19778038 -72.07472523 146.723487 -81.69165039 125.31567383 C-82.12606445 124.34887695 -82.56047852 123.38208008 -83.00805664 122.38598633 C-87.17424563 112.51626924 -88.04048298 103.24588079 -88.00732422 92.62402344 C-88.00417176 90.51745414 -88.02766539 88.41230413 -88.05297852 86.3059082 C-88.10813869 74.89454312 -86.18285798 64.67299348 -81.44165039 54.25317383 C-81.13646484 53.57544922 -80.8312793 52.89772461 -80.5168457 52.19946289 C-70.57375694 30.64758807 -54.09946356 15.93259899 -32.69165039 6.31567383 C-31.72485352 5.88125977 -30.75805664 5.4468457 -29.76196289 4.99926758 C-19.8922458 0.83307859 -10.62185735 -0.03315876 0 0 Z " fill="#010101" transform="translate(87.691650390625,-0.315673828125)"/>
<path d="M0 0 C3.44419134 11.52164009 3.44419134 11.52164009 3 17 C-2.78405824 18.53048964 -8.52500877 19.66059456 -14.4375 20.5625 C-15.23220703 20.68818359 -16.02691406 20.81386719 -16.84570312 20.94335938 C-22.21755348 21.77820349 -27.59565221 22.41590329 -33 23 C-33.02485652 28.95906272 -33.04293377 34.91809475 -33.05493164 40.87719727 C-33.05993738 42.90129116 -33.06674396 44.92538148 -33.07543945 46.94946289 C-33.08767059 49.87126552 -33.09326605 52.79302004 -33.09765625 55.71484375 C-33.10281754 56.60896469 -33.10797882 57.50308563 -33.11329651 58.42430115 C-33.11378856 64.02819663 -32.71189148 69.44034924 -32 75 C-25.64564211 76.79840318 -19.58868105 77.50584892 -13 78 C-12.34 71.07 -11.68 64.14 -11 57 C-14.63 57 -18.26 57 -22 57 C-22.09038099 51.84828377 -21.84681133 47.08086796 -21 42 C-12.05571013 41.41948119 -3.70163476 43.18625975 5 45 C5.3274015 53.69315526 4.43831433 62.15999 3.34594727 70.76416016 C3.05959864 73.02288603 2.78394732 75.28273672 2.50976562 77.54296875 C1.14969951 88.55090147 1.14969951 88.55090147 0 92 C-11.56984875 96.79996123 -31.9432544 92.30709651 -43 88 C-48.48713412 83.96863615 -49.35461096 79.26280015 -50.6328125 72.80078125 C-56.78332285 29.21025948 -56.78332285 29.21025948 -48.25 14.3125 C-43.92958169 9.87207007 -38.20717311 8.25097818 -32.375 6.5625 C-31.2919458 6.24599487 -31.2919458 6.24599487 -30.18701172 5.9230957 C-9.25028185 0 -9.25028185 0 0 0 Z " fill="#F8F8F8" transform="translate(84,42)"/>
<path d="M0 0 C0.33776684 1.7491497 0.67003671 3.49936145 1 5.25 C1.185625 6.22453125 1.37125 7.1990625 1.5625 8.203125 C2 11 2 11 2 15 C-1.36084838 16.12028279 -4.21379809 16.25158381 -7.75 16.4375 C-12.81543472 16.76261072 -17.22838301 17.29585108 -22 19 C-22.74734361 23.65214935 -23.11936092 28.09867942 -23.09765625 32.80859375 C-23.09282227 34.66967773 -23.09282227 34.66967773 -23.08789062 36.56835938 C-23.07951172 37.84517578 -23.07113281 39.12199219 -23.0625 40.4375 C-23.05798828 41.74138672 -23.05347656 43.04527344 -23.04882812 44.38867188 C-23.03709251 47.59249552 -23.02067363 50.79622363 -23 54 C-22.31897217 54.11593506 -21.63794434 54.23187012 -20.9362793 54.35131836 C-17.85293227 54.87761516 -14.77021514 55.40751507 -11.6875 55.9375 C-10.61564453 56.11990234 -9.54378906 56.30230469 -8.43945312 56.49023438 C-7.41142578 56.66748047 -6.38339844 56.84472656 -5.32421875 57.02734375 C-4.37635498 57.18968506 -3.42849121 57.35202637 -2.4519043 57.51928711 C0 58 0 58 3 59 C2.52396226 61.12570312 2.04407402 63.25054427 1.5625 65.375 C1.29566406 66.55835938 1.02882812 67.74171875 0.75390625 68.9609375 C0 72 0 72 -1 74 C-8.23120002 73.44534528 -15.17952081 72.28515636 -22.25 70.6875 C-23.20390625 70.48705078 -24.1578125 70.28660156 -25.140625 70.08007812 C-30.45389015 68.88828323 -34.85171901 67.73213179 -39 64 C-40.82650679 59.64125494 -41.25652585 55.89632233 -41.265625 51.1953125 C-41.26973389 49.8964209 -41.27384277 48.5975293 -41.27807617 47.25927734 C-41.26993011 45.88117719 -41.26055099 44.50308384 -41.25 43.125 C-41.24723053 42.43013489 -41.24446106 41.73526978 -41.24160767 41.01934814 C-41.10556525 12.06868405 -41.10556525 12.06868405 -36 6 C-30.35428145 3.32119543 -24.71233131 2.2208286 -18.5625 1.3125 C-17.76779297 1.18294922 -16.97308594 1.05339844 -16.15429688 0.91992188 C-10.71442088 0.08335836 -5.50246141 -0.11566736 0 0 Z " fill="#F7F7F7" transform="translate(145,64)"/>
</svg>
